<svg xmlns="http://www.w3.org/2000/svg" width="1800" height="760" viewBox="0 0 1800 760" role="img" aria-label="SCVD multi-agent workflow">
  <defs>
    <marker id="arrow" markerWidth="10" markerHeight="10" refX="9" refY="3" orient="auto" markerUnits="strokeWidth">
      <path d="M0,0 L0,6 L9,3 z" fill="#222"/>
    </marker>
    <style>
      .box { fill:#fff; stroke:#222; stroke-width:2; rx:8; }
      .rag { fill:#f7f7f7; stroke:#222; stroke-width:2; stroke-dasharray:8 6; rx:8; }
      .blue { fill:#dbe8fb; stroke:#4f7dbb; stroke-width:2; }
      .red { fill:#f8d1d1; stroke:#b94a48; stroke-width:2; }
      .green { fill:#dcefd8; stroke:#5f9b52; stroke-width:2; }
      .agent { fill:#fff; stroke:#222; stroke-width:2; rx:8; }
      .doc { fill:#fff; stroke:#222; stroke-width:2; }
      .arrow { stroke:#222; stroke-width:2.5; fill:none; marker-end:url(#arrow); }
      .dash { stroke:#222; stroke-width:2; fill:none; stroke-dasharray:8 6; marker-end:url(#arrow); }
      .label { font:24px Arial, sans-serif; fill:#111; }
      .small { font:18px Arial, sans-serif; fill:#111; }
      .tiny { font:15px Arial, sans-serif; fill:#222; }
    </style>
  </defs>

  <rect x="35" y="25" width="155" height="65" class="box"/>
  <text x="112" y="64" text-anchor="middle" class="small">Code4rena</text>
  <text x="112" y="115" text-anchor="middle" class="small">...</text>
  <rect x="35" y="130" width="155" height="65" class="box"/>
  <text x="112" y="170" text-anchor="middle" class="small">Sherlock</text>
  <line x1="220" y1="105" x2="310" y2="105" class="arrow"/>
  <rect x="340" y="25" width="610" height="170" class="rag"/>
  <text x="645" y="88" text-anchor="middle" class="label">RAG</text>
  <text x="645" y="142" text-anchor="middle" class="small">audit-report vulnerability knowledge base</text>

  <rect x="1035" y="25" width="445" height="170" class="rag"/>
  <text x="1258" y="88" text-anchor="middle" class="label">RAG</text>
  <text x="1258" y="142" text-anchor="middle" class="small">historical attack PoC knowledge base</text>
  <line x1="1710" y1="105" x2="1480" y2="105" class="arrow"/>
  <rect x="1580" y="62" width="150" height="65" class="box"/>
  <text x="1655" y="102" text-anchor="middle" class="small">DeFiHack</text>

  <rect x="35" y="255" width="170" height="80" class="box"/>
  <text x="120" y="304" text-anchor="middle" class="label">Project</text>
  <rect x="35" y="365" width="170" height="80" class="box"/>
  <text x="120" y="414" text-anchor="middle" class="label">Documents</text>

  <rect x="340" y="235" width="1140" height="210" class="blue"/>
  <rect x="365" y="260" width="210" height="48" class="agent"/>
  <text x="470" y="291" text-anchor="middle" class="small">function calls</text>
  <rect x="365" y="318" width="210" height="48" class="agent"/>
  <text x="470" y="349" text-anchor="middle" class="small">inheritance</text>
  <rect x="365" y="376" width="210" height="48" class="agent"/>
  <text x="470" y="407" text-anchor="middle" class="small">state variables</text>
  <line x1="205" y1="295" x2="340" y2="295" class="arrow"/>
  <line x1="205" y1="405" x2="340" y2="405" class="arrow"/>
  <line x1="575" y1="342" x2="640" y2="342" class="arrow"/>
  <rect x="660" y="260" width="250" height="48" class="agent"/>
  <text x="785" y="291" text-anchor="middle" class="small">business logic 1</text>
  <rect x="660" y="318" width="250" height="48" class="agent"/>
  <text x="785" y="349" text-anchor="middle" class="small">business logic 2</text>
  <rect x="660" y="376" width="250" height="48" class="agent"/>
  <text x="785" y="407" text-anchor="middle" class="small">business logic n</text>
  <line x1="910" y1="342" x2="960" y2="342" class="arrow"/>
  <rect x="980" y="278" width="115" height="90" class="agent"/>
  <text x="1038" y="335" text-anchor="middle" class="label">LLM1</text>
  <line x1="1095" y1="323" x2="1150" y2="323" class="arrow"/>
  <line x1="1150" y1="353" x2="1095" y2="353" class="arrow"/>
  <rect x="1170" y="278" width="115" height="90" class="agent"/>
  <text x="1228" y="335" text-anchor="middle" class="label">LLM2</text>
  <line x1="950" y1="165" x2="1170" y2="278" class="arrow"/>
  <line x1="1285" y1="323" x2="1395" y2="323" class="arrow"/>
  <rect x="1375" y="330" width="85" height="85" class="agent"/>
  <text x="1418" y="383" text-anchor="middle" class="label">LLM3</text>
  <line x1="1258" y1="195" x2="1418" y2="330" class="arrow"/>

  <rect x="340" y="480" width="1140" height="120" class="red"/>
  <line x1="1418" y1="415" x2="1418" y2="500" class="arrow"/>
  <rect x="1368" y="500" width="90" height="55" class="doc"/>
  <text x="1413" y="575" text-anchor="middle" class="tiny">root cause</text>
  <line x1="1368" y1="528" x2="1260" y2="528" class="arrow"/>
  <rect x="1190" y="510" width="95" height="65" class="agent"/>
  <text x="1238" y="550" text-anchor="middle" class="label">LLM4</text>
  <line x1="1190" y1="542" x2="1110" y2="542" class="arrow"/>
  <rect x="940" y="505" width="165" height="80" class="box"/>
  <text x="1022" y="535" text-anchor="middle" class="small">Foundry sandbox</text>
  <text x="1022" y="562" text-anchor="middle" class="tiny">fork + compile feedback</text>
  <line x1="940" y1="545" x2="855" y2="545" class="arrow"/>
  <rect x="760" y="510" width="95" height="65" class="agent"/>
  <text x="808" y="550" text-anchor="middle" class="label">LLM5</text>
  <line x1="760" y1="542" x2="650" y2="542" class="arrow"/>
  <rect x="560" y="512" width="80" height="55" class="doc"/>
  <text x="600" y="584" text-anchor="middle" class="tiny">complete PoC</text>

  <rect x="340" y="625" width="1140" height="115" class="green"/>
  <rect x="360" y="655" width="170" height="50" class="agent"/>
  <text x="445" y="687" text-anchor="middle" class="small">business logic</text>
  <line x1="530" y1="680" x2="600" y2="680" class="arrow"/>
  <rect x="600" y="645" width="180" height="32" class="agent"/>
  <text x="690" y="667" text-anchor="middle" class="tiny">business constraints</text>
  <rect x="600" y="690" width="180" height="32" class="agent"/>
  <text x="690" y="712" text-anchor="middle" class="tiny">security constraints</text>
  <line x1="780" y1="682" x2="850" y2="682" class="arrow"/>
  <rect x="870" y="642" width="95" height="65" class="agent"/>
  <text x="918" y="682" text-anchor="middle" class="label">LLM6</text>
  <line x1="965" y1="672" x2="1035" y2="672" class="arrow"/>
  <line x1="1035" y1="700" x2="965" y2="700" class="arrow"/>
  <rect x="1045" y="642" width="95" height="65" class="agent"/>
  <text x="1093" y="682" text-anchor="middle" class="label">LLM7</text>
  <line x1="1140" y1="675" x2="1225" y2="675" class="arrow"/>
  <rect x="1235" y="655" width="150" height="45" class="agent"/>
  <text x="1310" y="684" text-anchor="middle" class="small">dynamic validation</text>
  <line x1="1385" y1="678" x2="1455" y2="678" class="arrow"/>
  <rect x="1455" y="652" width="55" height="55" class="doc"/>
  <text x="1483" y="724" text-anchor="middle" class="tiny">security patch</text>
  <path d="M1310 655 C1310 625, 920 625, 920 642" class="dash"/>

  <line x1="600" y1="567" x2="1545" y2="567" class="arrow"/>
  <line x1="1510" y1="680" x2="1545" y2="680" class="arrow"/>
  <rect x="1545" y="590" width="165" height="75" class="box"/>
  <text x="1628" y="635" text-anchor="middle" class="label">reports</text>
</svg>
